Sprint_08100001_forces_filt100Hz.mot
version=1
nRows=43
nColumns=19
inDegrees=yes
endheader
time	R_ground_force_vx	R_ground_force_vy	R_ground_force_vz	R_ground_force_px	R_ground_force_py	R_ground_force_pz	R_ground_torque_x	R_ground_torque_y	R_ground_torque_z	L_ground_force_vx	L_ground_force_vy	L_ground_force_vz	L_ground_force_px	L_ground_force_py	L_ground_force_pz	L_ground_torque_x	L_ground_torque_y	L_ground_torque_z	
0.000000	  0.000000	  0.000000	  0.000000	  0.270459	  0.000000	 -0.246355	  0.000000	  0.000000	  0.000000	  0.000000	  0.000000	  0.000000	  1.245356	  0.000000	 -0.405437	  0.000000	  0.000000	  0.000000
0.000500	  0.000000	  0.000000	  0.000000	  0.272823	 -0.000000	 -0.246224	  0.000000	  0.000000	  0.000000	  0.000000	  0.000000	  0.000000	  1.242251	 -0.000000	 -0.404746	  0.000000	  0.000000	  0.000000
0.001000	  0.000000	  0.000000	  0.000000	  0.275187	 -0.000000	 -0.246094	  0.000000	  0.000000	  0.000000	  0.000000	  0.000000	  0.000000	  1.239145	 -0.000000	 -0.404055	  0.000000	  0.000000	  0.000000
0.001500	  0.000000	  0.000000	  0.000000	  0.277550	 -0.000000	 -0.245963	  0.000000	  0.000000	  0.000000	  0.000000	  0.000000	  0.000000	  1.236040	 -0.000000	 -0.403365	  0.000000	  0.000000	  0.000000
0.002000	  0.000000	  0.000000	  0.000000	  0.279914	 -0.000000	 -0.245833	  0.000000	  0.000000	  0.000000	  0.000000	  0.000000	  0.000000	  1.232935	 -0.000000	 -0.402674	  0.000000	  0.000000	  0.000000
0.002500	  0.000000	  0.000000	  0.000000	  0.282278	  0.000000	 -0.245702	  0.000000	  0.000000	  0.000000	  0.000000	  0.000000	  0.000000	  1.229829	  0.000000	 -0.401983	  0.000000	  0.000000	  0.000000
0.003000	  0.000000	  0.000000	  0.000000	  0.284642	  0.000000	 -0.245572	  0.000000	  0.000000	  0.000000	  0.000000	  0.000000	  0.000000	  1.226724	  0.000000	 -0.401293	  0.000000	  0.000000	  0.000000
0.003500	  0.000000	  0.000000	  0.000000	  0.287006	  0.000000	 -0.245441	  0.000000	  0.000000	  0.000000	  0.000000	  0.000000	  0.000000	  1.223619	  0.000000	 -0.400602	  0.000000	  0.000000	  0.000000
0.004000	  0.000000	  0.000000	  0.000000	  0.289370	  0.000000	 -0.245311	  0.000000	  0.000000	  0.000000	  0.000000	  0.000000	  0.000000	  1.220513	  0.000000	 -0.399911	  0.000000	  0.000000	  0.000000
0.004500	  0.000000	  0.000000	  0.000000	  0.291734	  0.000000	 -0.245180	  0.000000	  0.000000	  0.000000	  0.000000	  0.000000	  0.000000	  1.217408	  0.000000	 -0.399221	  0.000000	  0.000000	  0.000000
0.005000	  0.000000	  0.000000	  0.000000	  0.294098	  0.000000	 -0.245050	  0.000000	  0.000000	  0.000000	  0.000000	  0.000000	  0.000000	  1.214303	  0.000000	 -0.398530	  0.000000	  0.000000	  0.000000
0.005500	  0.000000	  0.000000	  0.000000	  0.296495	  0.000000	 -0.244976	  0.000000	  0.000000	  0.000000	  0.000000	  0.000000	  0.000000	  1.210940	  0.000000	 -0.397403	  0.000000	  0.000000	  0.000000
0.006000	  0.000000	  0.000000	  0.000000	  0.298893	  0.000000	 -0.244903	  0.000000	  0.000000	  0.000000	  0.000000	  0.000000	  0.000000	  1.207576	  0.000000	 -0.396276	  0.000000	  0.000000	  0.000000
0.006500	  0.000000	  0.000000	  0.000000	  0.301291	  0.000000	 -0.244830	  0.000000	  0.000000	  0.000000	  0.000000	  0.000000	  0.000000	  1.193380	 -0.000000	 -0.409852	  0.000000	  0.000000	  0.000000
0.007000	  0.000000	  0.000000	  0.000000	  0.303689	  0.000000	 -0.244757	  0.000000	  0.000000	  0.000000	  0.000000	  0.000000	  0.000000	  1.179183	 -0.000000	 -0.423429	  0.000000	  0.000000	  0.000000
0.007500	  0.000000	  0.000000	  0.000000	  0.306087	  0.000000	 -0.244684	  0.000000	  0.000000	  0.000000	  0.000000	  0.000000	  0.000000	  1.164987	 -0.000000	 -0.437005	  0.000000	  0.000000	  0.000000
0.008000	  0.000000	  0.000000	  0.000000	  0.308485	  0.000000	 -0.244610	  0.000000	  0.000000	  0.000000	 60.636544	 14.483052	 51.365490	  1.150790	 -0.000000	 -0.450581	  0.000000	 44.538837	  0.000000
0.008500	  0.000000	  0.000000	  0.000000	  0.310882	  0.000000	 -0.244537	  0.000000	  0.000000	  0.000000	 54.395618	 45.486888	 40.032800	  1.136593	  0.000000	 -0.464157	  0.000000	 42.162731	  0.000000
0.009000	  0.000000	  0.000000	  0.000000	  0.313280	  0.000000	 -0.244464	  0.000000	  0.000000	  0.000000	 45.678944	 88.130766	 26.516579	  1.122397	  0.000000	 -0.477734	  0.000000	 38.342174	  0.000000
0.009500	  0.000000	  0.000000	  0.000000	  0.315678	  0.000000	 -0.244391	  0.000000	  0.000000	  0.000000	 34.343554	143.582458	 11.023537	  1.108200	  0.000000	 -0.491310	  0.000000	 33.494032	  0.000000
0.010000	  0.000000	  0.000000	  0.000000	  0.318076	  0.000000	 -0.244317	  0.000000	  0.000000	  0.000000	 20.271862	212.058503	 -6.132554	  1.094004	  0.000000	 -0.504886	  0.000000	 27.846103	  0.000000
0.010500	  0.000000	  0.000000	  0.000000	  0.320546	  0.000000	 -0.244262	  0.000000	  0.000000	  0.000000	  3.343048	292.483837	-24.489872	  1.079807	  0.000000	 -0.518462	  0.000000	 21.554918	  0.000000
0.011000	  0.000000	  0.000000	  0.000000	  0.323015	  0.000000	 -0.244207	  0.000000	  0.000000	  0.000000	-16.584902	382.683159	-43.406570	  1.076529	  0.000000	 -0.513165	  0.000000	 14.769153	  0.000000
0.011500	  0.000000	  0.000000	  0.000000	  0.325485	  0.000000	 -0.244151	  0.000000	  0.000000	  0.000000	-39.675625	480.004950	-62.052929	  1.072980	  0.000000	 -0.507569	  0.000000	  7.655167	  0.000000
0.012000	  0.000000	  0.000000	  0.000000	  0.327955	  0.000000	 -0.244096	  0.000000	  0.000000	  0.000000	-66.102125	581.741968	-79.440720	  1.069013	  0.000000	 -0.501618	  0.000000	  0.400316	  0.000000
0.012500	  0.000000	  0.000000	  0.000000	  0.330424	  0.000000	 -0.244041	  0.000000	  0.000000	  0.000000	-96.027600	685.196794	-94.487694	  1.064600	  0.000000	 -0.495292	  0.000000	 -6.791030	  0.000000
0.013000	  0.000000	  0.000000	  0.000000	  0.332894	  0.000000	 -0.243985	  0.000000	  0.000000	  0.000000	-129.585764	787.719019	-106.099730	  1.059757	  0.000000	 -0.488595	  0.000000	-13.698229	  0.000000
0.013500	  0.000000	  0.000000	  0.000000	  0.335364	  0.000000	 -0.243930	  0.000000	  0.000000	  0.000000	-166.857438	886.844665	-113.259315	  1.054450	  0.000000	 -0.481542	  0.000000	-20.078403	  0.000000
0.014000	  0.000000	  0.000000	  0.000000	  0.337834	  0.000000	 -0.243875	  0.000000	  0.000000	  0.000000	-207.831153	980.477843	-115.114765	  1.048535	  0.000000	 -0.474150	  0.000000	-25.658911	  0.000000
0.014500	  0.000000	  0.000000	  0.000000	  0.340303	  0.000000	 -0.243819	  0.000000	  0.000000	  0.000000	-252.346040	1067.054243	-111.066008	  1.041745	  0.000000	 -0.466435	  0.000000	-30.136279	  0.000000
0.015000	  0.000000	  0.000000	  0.000000	  0.342773	  0.000000	 -0.243764	  0.000000	  0.000000	  0.000000	-300.026054	1145.615117	-100.843114	  1.033739	  0.000000	 -0.458420	  0.000000	-33.186915	  0.000000
0.015500	  0.000000	  0.000000	  0.000000	  0.345296	  0.000000	 -0.243625	  0.000000	  0.000000	  0.000000	-350.218412	1215.759491	-84.563896	  1.024192	  0.000000	 -0.450154	  0.000000	-34.492964	  0.000000
0.016000	  0.000000	  0.000000	  0.000000	  0.347818	  0.000000	 -0.243486	  0.000000	  0.000000	  0.000000	-401.953681	1277.491523	-62.746216	  1.012907	  0.000000	 -0.441725	  0.000000	-33.784333	  0.000000
0.016500	  0.000000	  0.000000	  0.000000	  0.350341	  0.000000	 -0.243347	  0.000000	  0.000000	  0.000000	-453.939381	1331.016067	-36.264933	  0.999912	  0.000000	 -0.433266	  0.000000	-30.884416	  0.000000
0.017000	  0.000000	  0.000000	  0.000000	  0.352863	  0.000000	 -0.243209	  0.000000	  0.000000	  0.000000	-504.593272	1376.564617	 -6.257943	  0.985515	  0.000000	 -0.424951	  0.000000	-25.746037	  0.000000
0.017500	  0.000000	  0.000000	  0.000000	  0.355386	  0.000000	 -0.243070	  0.000000	  0.000000	  0.000000	-552.114691	1414.301210	 25.998987	  0.970310	  0.000000	 -0.416984	  0.000000	-18.469699	  0.000000
0.018000	  0.000000	  0.000000	  0.000000	  0.357909	  0.000000	 -0.242931	  0.000000	  0.000000	  0.000000	-594.584778	1444.331471	 59.213178	  0.955133	  0.000000	 -0.409579	  0.000000	 -9.295199	  0.000000
0.018500	  0.000000	  0.000000	  0.000000	  0.360431	  0.000000	 -0.242792	  0.000000	  0.000000	  0.000000	-630.080872	1466.800541	 92.166331	  0.940995	  0.000000	 -0.402951	  0.000000	  1.429090	  0.000000
0.019000	  0.000000	  0.000000	  0.000000	  0.362954	  0.000000	 -0.242654	  0.000000	  0.000000	  0.000000	-656.782938	1482.025841	123.759115	  0.928997	  0.000000	 -0.397310	  0.000000	 13.292457	  0.000000
0.019500	  0.000000	  0.000000	  0.000000	  0.365476	  0.000000	 -0.242515	  0.000000	  0.000000	  0.000000	-673.064471	1490.614845	153.012677	  0.920237	  0.000000	 -0.392860	  0.000000	 25.874883	  0.000000
0.020000	  0.000000	  0.000000	  0.000000	  0.367999	  0.000000	 -0.242376	  0.000000	  0.000000	  0.000000	-677.575161	1493.521569	179.052237	  0.915708	  0.000000	 -0.389797	  0.000000	 38.791846	  0.000000
0.020500	  0.000000	  0.000000	  0.000000	  0.370551	  0.000000	 -0.242196	  0.000000	  0.000000	  0.000000	-669.322604	1492.027605	201.102432	  0.916183	  0.000000	 -0.388304	  0.000000	 51.720584	  0.000000
0.021000	  0.000000	  0.000000	  0.000000	  0.373102	  0.000000	 -0.242017	  0.000000	  0.000000	  0.000000	-647.758580	1487.665737	218.527153	  0.922105	  0.000000	 -0.388526	  0.000000	 64.403070	  0.000000
